<?xml version="1.0" standalone="no"?>
<!DOCTYPE svg PUBLIC "-//W3C//DTD SVG 20010904//EN"
 "http://www.w3.org/TR/2001/REC-SVG-20010904/DTD/svg10.dtd">
<svg version="1.0" xmlns="http://www.w3.org/2000/svg"
 width="556.000000pt" height="556.000000pt" viewBox="0 0 556.000000 556.000000"
 preserveAspectRatio="xMidYMid meet">
<metadata>
Created by potrace 1.14, written by Peter Selinger 2001-2017
</metadata>
<g transform="translate(0.000000,556.000000) scale(0.100000,-0.100000)"
fill="#000000" stroke="none">
<path d="M416 5258 c-9 -5 -12 -344 -11 -1521 0 -834 3 -1518 7 -1522 5 -5
974 -10 1189 -6 l36 1 0 1521 c0 1176 -3 1522 -12 1526 -20 7 -1195 9 -1209 1z"/>
<path d="M1917 5262 l-67 -3 2 -1526 3 -1525 133 -2 c72 0 133 1 133 4 1 3 2
242 3 532 1 290 4 530 8 533 3 3 342 6 753 6 l747 0 -7 52 c-14 107 -70 246
-139 347 -43 62 -148 164 -219 212 -68 46 -225 122 -275 133 -31 6 -32 8 -19
28 8 12 20 33 28 47 8 14 17 27 21 30 16 12 59 128 74 198 47 223 -9 474 -141
637 -49 60 -124 134 -137 135 -4 0 -13 6 -20 14 -40 39 -207 112 -303 131 -71
14 -415 24 -578 17z"/>
<path d="M2974 5261 c-2 -2 23 -29 55 -60 82 -78 162 -186 205 -278 21 -43 41
-85 45 -94 28 -51 54 -201 55 -309 0 -130 -5 -189 -16 -196 -5 -3 -6 -9 -4
-13 3 -4 0 -25 -6 -47 -7 -21 -13 -42 -14 -46 -1 -5 -2 -9 -4 -10 -1 -2 -3
-10 -5 -18 -2 -8 -6 -22 -9 -31 -5 -11 15 -29 76 -69 148 -97 299 -261 385
-420 55 -102 114 -290 117 -372 0 -15 10 -18 51 -19 27 -1 55 0 60 1 6 1 57 1
115 0 58 0 112 -1 120 -1 8 0 62 0 120 0 105 0 119 0 143 2 19 2 368 0 407 -2
19 0 42 -1 50 0 8 0 65 1 125 1 l111 1 -1 984 c0 541 -3 986 -7 990 -7 7
-2167 13 -2174 6z"/>
<path d="M2342 3065 c-11 -17 -8 -2765 3 -2766 5 -1 299 -2 652 -3 l643 -1 1
25 c0 14 1 307 1 651 l1 626 103 0 104 0 0 -648 c0 -357 3 -649 8 -650 28 -4
1285 -3 1291 1 4 3 7 627 7 1388 l0 1382 -653 0 -653 0 0 -630 c0 -346 -3
-630 -7 -631 -52 -6 -193 -2 -196 6 -3 5 -5 287 -5 625 0 338 -1 618 -1 622
-1 12 -1292 15 -1299 3z"/>
<path d="M417 1978 c-9 -5 -12 -222 -12 -843 -1 -459 2 -835 5 -836 3 -1 389
-2 858 -3 561 -1 852 2 853 9 1 6 2 385 3 843 l1 832 -110 0 c-1080 4 -1589 4
-1598 -2z"/>
</g>
</svg>
