<?xml version="1.0" encoding="UTF-8"?><svg id="Layer_1" xmlns="http://www.w3.org/2000/svg" viewBox="0 0 265.46 277.73"><defs><style>.cls-1{fill:#f1ebe0;}</style></defs><path class="cls-1" d="m100.08,113.88h75.15c-1.86-19.17-14.86-32.17-33.58-37.73,4.95-6.23,7.75-13.96,7.75-22.99,0-21.48-16.37-37.81-38.98-38.24h-24.04v152.53h13.7v-53.57Z"/><path class="cls-1" d="m141.71,14.8c11.14,8.98,18.89,22.58,18.89,38.24,0,6.15-1.44,12.41-3.49,17.86,16.34,9.11,27.58,24.77,29.41,43.64l.11-.65h64.69V14.92l-109.61-.12Z"/><polygon class="cls-1" points="75.6 178.76 14.14 178.76 14.14 262.93 100.08 262.93 100.08 178.76 87.09 178.76 75.6 178.76"/><polygon class="cls-1" points="75.74 14.92 75.74 14.92 14.14 14.92 14.14 96.33 14.14 96.34 14.14 167.45 75.74 167.45 75.74 14.92"/><polygon class="cls-1" points="186.13 187.54 175.74 187.54 175.74 124.32 110.55 124.32 110.55 262.93 175.74 262.93 175.74 197.92 186.13 197.92 186.13 262.93 251.32 262.93 251.32 124.32 186.13 124.32 186.13 187.54"/></svg>