<?xml version="1.0" encoding="UTF-8"?><svg id="Layer_1" xmlns="http://www.w3.org/2000/svg" viewBox="0 0 557.08 421.52"><defs><style>.cls-1{fill:#f1ebe0;}</style></defs><path class="cls-1" d="m243.21,114.77h81.3c-2.01-20.74-16.08-34.8-36.32-40.82,5.36-6.74,8.39-15.11,8.39-24.87,0-23.24-17.71-40.9-42.17-41.37h-26v165.01h14.82v-57.95Z"/><path class="cls-1" d="m288.25,7.58c12.05,9.71,20.44,24.43,20.44,41.37,0,6.65-1.56,13.42-3.78,19.32,17.67,9.85,29.84,26.8,31.82,47.21l.11-.71h69.99V7.72l-118.58-.13Z"/><polygon class="cls-1" points="216.73 184.97 150.25 184.97 150.25 276.02 243.21 276.02 243.21 184.97 229.16 184.97 216.73 184.97"/><polygon class="cls-1" points="216.89 7.72 216.89 7.72 150.25 7.72 150.25 95.79 150.25 95.8 150.25 172.72 216.89 172.72 216.89 7.72"/><polygon class="cls-1" points="336.31 194.47 325.06 194.47 325.06 126.07 254.54 126.07 254.54 276.02 325.06 276.02 325.06 205.69 336.31 205.69 336.31 276.02 406.83 276.02 406.83 126.07 336.31 126.07 336.31 194.47"/><path class="cls-1" d="m31.57,329.49c4.05.67,9.76,3.68,9.76,10.98s-5.22,11.96-14.67,11.96H10.02v-42.93h15.47c7.86,0,12.83,4.54,12.83,10.55,0,5.64-3.62,8.52-6.75,9.26v.18Zm-6.57-1.59c4.79,0,8.29-2.45,8.29-7.11,0-4.23-3.25-6.99-8.78-6.99h-9.52v14.11h10.01Zm1.41,20.24c5.77,0,9.7-2.64,9.7-7.91s-4.54-8.4-9.82-8.4h-11.3v16.31h11.42Z"/><path class="cls-1" d="m83.27,309.5h28.92v4.66h-23.95v13.49h18.67v4.66h-18.67v15.45h24.07v4.66h-29.04v-42.93Z"/><path class="cls-1" d="m160.07,317.53h-.12c0,.06.12,4.97.12,10.3v24.59h-4.97v-42.93h5.03l25.17,34.59h.12c0-.06-.12-5.09-.12-10.06v-24.53h5.03v42.93h-5.1l-25.17-34.89Z"/><path class="cls-1" d="m256.34,335.26c0,11.53-5.03,17.97-14.74,17.97-4.54,0-8.1-1.66-10.81-4.91l2.82-3.92c2.15,2.76,4.67,4.05,7.98,4.05,6.88,0,9.7-4.6,9.7-13.43v-25.51h5.03v25.76Z"/><path class="cls-1" d="m305.03,341.02l-4.79,11.41h-5.34l18.3-42.93h5.46l18.3,42.93h-5.34l-4.79-11.41h-21.8Zm15.16-15.76c-1.66-3.92-4.17-10-4.24-10.06h-.12c-.06.06-2.58,6.13-4.18,10l-4.73,11.28h17.99l-4.73-11.22Z"/><path class="cls-1" d="m412.97,333.11c0-6.62.18-15.45.18-15.52h-.12c-.06.06-1.72,3.5-5.59,10.36l-7.86,13.92h-3.01l-7.8-13.74c-3.99-7.05-5.59-10.49-5.65-10.55h-.12c0,.06.12,8.89.12,15.52v19.32h-4.97v-42.93h5.28l14.61,26.13h.12l14.67-26.13h5.16v42.93h-5.03v-19.32Z"/><path class="cls-1" d="m462.39,309.5h4.97v42.93h-4.97v-42.93Z"/><path class="cls-1" d="m516.79,317.53h-.12c0,.06.12,4.97.12,10.3v24.59h-4.97v-42.93h5.03l25.17,34.59h.12c0-.06-.12-5.09-.12-10.06v-24.53h5.03v42.93h-5.1l-25.17-34.89Z"/><path class="cls-1" d="m118.33,413.2v-15.45h-18.85v15.45h-4.79v-34.34h4.79v14.41h18.85v-14.41h4.79v34.34h-4.79Z"/><path class="cls-1" d="m183.16,378.19c10.19,0,18.05,7.48,18.05,17.91s-7.86,17.85-18.05,17.85-18.05-7.54-18.05-17.85,7.86-17.91,18.05-17.91Zm0,31.34c7.49,0,13.2-5.52,13.2-13.43s-5.71-13.49-13.2-13.49-13.2,5.46-13.2,13.49,5.71,13.43,13.2,13.43Z"/><path class="cls-1" d="m255.18,383.34v29.87h-4.79v-29.87h-11.97v-4.48h28.79v4.48h-12.03Z"/><path class="cls-1" d="m309.21,378.86h24.13v4.48h-19.34v9.94h14.92v4.35h-14.92v11.1h19.65v4.48h-24.44v-34.34Z"/><path class="cls-1" d="m376.44,378.86h4.79v29.87h17.93v4.48h-22.72v-34.34Z"/><path class="cls-1" d="m442.87,403.51c.49,3.99,3.93,6.56,9.39,6.56,4.67,0,7.8-1.96,7.8-6.01,0-5.34-5.28-5.76-11.11-7.05-4.24-.92-9.7-2.45-9.7-9.26,0-6.26,4.6-9.57,12.28-9.57,7,0,11.73,2.76,13.08,8.34l-4.24,1.17c-.92-3.43-3.44-5.64-8.53-5.64s-7.68,1.96-7.68,5.52c0,4.17,3.87,5.09,9.27,6.13,4.36.86,11.48,2.33,11.48,10.3,0,6.75-5.16,9.94-12.65,9.94-5.46,0-12.4-1.66-13.75-9.26l4.36-1.17Z"/></svg>